<svg width="2230" height="572" viewBox="0 0 2230 572" fill="none" xmlns="http://www.w3.org/2000/svg">
<path d="M674.71 237.431L661.596 249.854C652.164 240.575 641.812 233.559 630.539 228.804C619.343 223.973 608.415 221.557 597.756 221.557C584.489 221.557 571.836 224.816 559.797 231.335C547.834 237.853 538.555 246.71 531.96 257.906C525.365 269.026 522.067 280.797 522.067 293.22C522.067 305.95 525.48 318.066 532.305 329.569C539.13 340.995 548.562 350.005 560.602 356.6C572.641 363.119 585.831 366.378 600.171 366.378C617.579 366.378 632.303 361.47 644.342 351.654C656.382 341.838 663.514 329.109 665.737 313.465H611.789V297.131H684.717C684.564 323.28 676.78 344.062 661.366 359.476C646.029 374.813 625.478 382.482 599.711 382.482C568.424 382.482 543.654 371.822 525.403 350.504C511.37 334.093 504.353 315.113 504.353 293.565C504.353 277.538 508.379 262.622 516.431 248.819C524.483 235.016 535.526 224.241 549.559 216.496C563.593 208.674 579.466 204.763 597.181 204.763C611.521 204.763 625.018 207.37 637.671 212.585C650.324 217.723 662.67 226.005 674.71 237.431Z" fill="#111110"/>
<path d="M370.9 209.02L449.81 378.226H431.635L405.064 322.553H332.136L305.68 378.226H286.815L366.759 209.02H370.9ZM368.83 244.909L339.728 306.219H397.587L368.83 244.909Z" fill="#111110"/>
<path d="M91.1255 378.226V209.019H126.209C151.515 209.019 169.881 211.051 181.308 215.116C197.718 220.867 210.525 230.836 219.727 245.023C229.006 259.21 233.645 276.119 233.645 295.75C233.645 312.698 229.964 327.613 222.603 340.496C215.317 353.38 205.809 362.888 194.076 369.023C182.419 375.158 166.047 378.226 144.959 378.226H91.1255ZM107.344 362.237H126.899C150.288 362.237 166.507 360.78 175.556 357.866C188.286 353.725 198.293 346.286 205.578 335.55C212.864 324.738 216.506 311.548 216.506 295.98C216.506 279.646 212.557 265.69 204.658 254.11C196.76 242.531 185.755 234.594 171.645 230.299C161.063 227.079 143.617 225.468 119.307 225.468H107.344V362.237Z" fill="#111110"/>
<path d="M0 209.019H16.9091V378.225H0V209.019Z" fill="#111110"/>
<path d="M2136.42 225.263V208.814H2229.24V225.263H2191.52V378.02H2174.26V225.263H2136.42Z" fill="#111110"/>
<path d="M2000.78 225.263V208.814H2093.6V225.263H2055.87V378.02H2038.62V225.263H2000.78Z" fill="#111110"/>
<path d="M1876.98 208.814L1955.89 378.02H1937.72L1911.15 322.347H1838.22L1811.76 378.02H1792.9L1872.84 208.814H1876.98ZM1874.91 244.703L1845.81 306.013H1903.67L1874.91 244.703Z" fill="#111110"/>
<path d="M1598.24 378.02V208.814H1601.92L1714.42 338.336V208.814H1731.1V378.02H1727.31L1615.73 250.109V378.02H1598.24Z" fill="#111110"/>
<path d="M1507.01 208.814H1523.92V378.02H1507.01V208.814Z" fill="#111110"/>
<path d="M1095.82 16.387L1158.12 208.135L1359.74 208.135L1196.63 326.641L1258.93 518.389L1095.82 399.883L932.711 518.389L995.014 326.641L831.904 208.135L1033.52 208.135L1095.82 16.387Z" stroke="#111110" stroke-width="10.1277"/>
<path fill-rule="evenodd" clip-rule="evenodd" d="M1099.59 209.276C1099.87 209.319 1100.14 209.379 1100.42 209.403C1103.16 209.644 1105.9 209.82 1108.63 210.128C1113.3 210.657 1117.89 211.658 1122.37 213.034C1143.89 219.637 1160.63 232.187 1172.35 250.913C1177.82 259.665 1181.44 269.121 1183.39 279.184C1184.63 285.598 1185.11 292.065 1184.79 298.572C1183.37 327.394 1167.21 353.987 1140.6 368.762C1132.2 373.422 1123.26 376.656 1113.78 378.497C1106.81 379.849 1099.77 380.345 1092.68 380.028C1084.08 379.645 1075.72 378.028 1067.57 375.293C1057.35 371.86 1048.1 366.77 1039.86 360.011C1028.46 350.677 1020.07 339.241 1014.6 325.793C1012.39 320.363 1010.76 314.768 1009.79 309.013C1009.31 306.2 1009.02 303.351 1008.78 300.508C1008.59 298.303 1008.49 296.078 1008.55 293.867C1008.64 290.932 1008.83 287.993 1009.14 285.073C1010.03 276.756 1012.3 268.782 1015.68 261.098C1019.1 253.31 1023.63 246.17 1029.26 239.704C1036.9 230.948 1045.99 223.959 1056.52 218.726C1063.96 215.028 1071.79 212.389 1080 210.879C1083.02 210.322 1086.1 210.024 1089.17 209.66C1090.45 209.507 1091.75 209.492 1093.04 209.404C1093.32 209.385 1093.6 209.32 1093.87 209.276C1095.78 209.276 1097.68 209.276 1099.59 209.276ZM1155.28 275.709C1155.21 274.099 1155.19 272.313 1155.06 270.533C1154.91 268.351 1154.71 266.17 1154.46 263.995C1154.09 260.638 1153.39 257.337 1152.53 254.068C1148.51 238.954 1140.49 226.309 1127.83 216.532C1127.3 216.12 1126.77 215.624 1126.15 215.409C1117.33 212.359 1108.25 210.666 1098.89 210.446C1094.49 210.342 1090.12 210.56 1085.76 211.116C1082.04 211.59 1078.36 212.246 1074.74 213.173C1060.34 216.863 1047.7 223.65 1036.85 233.548C1027.97 241.646 1021.24 251.185 1016.51 262.059C1013.58 268.83 1011.5 275.846 1010.56 283.142C1010.15 286.261 1009.85 289.404 1009.73 292.545C1009.55 296.874 1009.81 301.196 1010.4 305.499C1010.88 309 1011.55 312.462 1012.49 315.874C1017.21 333.132 1026.58 347.573 1040.6 359.161C1047.09 364.526 1054.3 368.798 1062.14 372.064C1067.43 374.274 1066.88 374.136 1072.79 374.204C1074.22 374.221 1075.66 374.134 1077.1 374.097C1080.23 374.015 1083.32 373.528 1086.37 372.884C1093.24 371.435 1099.68 368.919 1105.75 365.495C1116.04 359.692 1124.51 351.932 1131.67 342.797C1140.5 331.553 1146.77 319.068 1150.81 305.517C1152.26 300.646 1153.42 295.71 1154.1 290.678C1154.47 287.929 1154.81 285.173 1155.04 282.411C1155.22 280.243 1155.2 278.06 1155.28 275.709Z" fill="#111110"/>
<path d="M1096.71 209.559C1143.69 209.559 1181.85 248.249 1181.85 296.076C1181.85 343.903 1143.69 382.594 1096.71 382.594C1049.73 382.594 1011.57 343.903 1011.57 296.076C1011.57 248.249 1049.73 209.559 1096.71 209.559Z" stroke="#111110" stroke-width="6.07664"/>
</svg>
